<?xml version="1.0" standalone="no"?>
<!DOCTYPE svg PUBLIC "-//W3C//DTD SVG 1.1//EN" "http://www.w3.org/Graphics/SVG/1.1/DTD/svg11.dtd">
<svg xmlns="http://www.w3.org/2000/svg">
<defs >
<font id="Bellota" horiz-adv-x="578" ><font-face
    font-family="Bellota"
    units-per-em="1000"
    panose-1="0 0 5 0 0 0 0 0 0 0"
    ascent="968"
    descent="-290"
    alphabetic="0" />
<glyph unicode=" " glyph-name="space" horiz-adv-x="272" />
<glyph unicode="!" glyph-name="exclam" horiz-adv-x="242" d="M126 704H194L111 139H60L126 704ZM51 -13T40 -2T29 25Q29 45 42 58T73 72Q90 72 101 61T112 33Q112 14 99 1T67 -13Q51 -13 40 -2Z" />
<glyph unicode="&quot;" glyph-name="quotedbl" horiz-adv-x="351" d="M125 684H195L160 492H110L125 684ZM232 684H302L267 492H216L232 684Z" />
<glyph unicode="#" glyph-name="numbersign" horiz-adv-x="587" d="M132 184H19L26 236H137L160 412H49L56 464H167L187 617H241L221 464H383L403 617H458L438 464H548L541 412H431L407 236H518L511 184H401L380 30H328L348 184H184L164 30H112L132 184ZM353 236L376
412H214L191 236H353Z" />
<glyph unicode="$" glyph-name="dollar" horiz-adv-x="580" d="M151 -10T103 8T19 59L55 105Q123 51 211 41L250 316Q213 328 189 342T146 378Q108 417 108 472Q108 546 165 600Q222 645 291 653L305 744H361L347 653Q375 650 395 643T446 623Q494 603 527 576L491
530Q456 554 429 568Q407 578 390 583T342 593L309 358Q358 341 383 329T430 296Q477 255 477 191Q477 139 459 100T402 31Q346 -7 262 -14L251 -92H195L206 -15Q151 -10 103 8ZM227 589T198 555T169 476Q169 446 187 422Q210 398 255 377L286 595Q227 589 198
555ZM325 43T362 73Q392 93 404 123T417 184Q417 227 391 253Q359 278 303 297L267 40Q325 43 362 73Z" />
<glyph unicode="%" glyph-name="percent" horiz-adv-x="755" d="M457 3T426 34T395 117Q395 125 397 141Q405 206 447 238T542 271Q594 271 624 240T655 157Q655 149 653 133Q645 69 603 36T508 3Q457 3 426 34ZM551 52T577 81T603 155Q603 186 587 204T540 222Q499
222 474 191T448 117Q448 87 464 70T511 52Q551 52 577 81ZM474 511H531L254 11H195L474 511ZM125 246T94 277T63 360Q63 368 65 384Q73 449 115 481T210 514Q262 514 292 483T323 400Q323 392 321 376Q313 312 271 279T176 246Q125 246 94 277ZM219 295T245 324T271
398Q271 429 255 447T208 465Q167 465 142 434T116 360Q116 330 132 313T179 295Q219 295 245 324Z" />
<glyph unicode="&amp;" glyph-name="ampersand" horiz-adv-x="683" d="M46 227T80 276T170 354Q135 404 135 458Q135 504 160 545T226 610T313 634Q368 634 410 608T452 534Q452 497 429 471T372 444Q352 444 336 455T311 489L357 508Q358 504 362 501T372 497Q383
497 390 506T397 532Q397 557 375 568T313 580Q272 580 236 549T195 478Q194 471 194 458Q194 431 207 406T257 343L429 160Q479 237 489 319L494 357H546L540 313Q526 205 464 122L518 63Q520 61 524 57T531 51T539 49Q552 49 561 56L583 7Q562 -8 538 -8Q519
-8 507 0T486 18T472 33L425 78Q384 35 333 13T223 -10Q139 -10 88 32T36 143Q36 151 38 167Q46 227 80 276ZM95 160T95 148Q95 99 130 71T224 42Q269 42 312 61T391 115L204 313Q156 291 130 256T96 166Q95 160 95 148Z" />
<glyph unicode="&apos;" glyph-name="quotesingle" horiz-adv-x="244" d="M125 684H195L160 492H110L125 684Z" />
<glyph unicode="(" glyph-name="parenleft" horiz-adv-x="353" d="M111 -89T64 39Q30 122 30 219Q30 253 35 296Q54 436 129 557Q217 685 344 751L365 706Q314 678 268 632T187 531Q151 479 127 416T94 291Q90 263 90 229Q90 140 121 52Q143 0 176 -45T254 -119L227
-160Q111 -89 64 39Z" />
<glyph unicode=")" glyph-name="parenright" horiz-adv-x="353" d="M-39 -117Q14 -87 60 -41T139 58Q173 108 198 171T232 297Q236 325 236 361Q236 453 205 537Q183 590 149 635T72 708L99 749Q157 714 198 663T262 551Q296 470 296 370Q296 331 290 290Q273
153 197 33Q111 -94 -18 -162L-39 -117Z" />
<glyph unicode="*" glyph-name="asterisk" horiz-adv-x="387" d="M93 452L170 534L71 562L96 619L193 578L203 694H261L239 577L348 619L357 562L252 533L307 452L256 418L209 512L136 416L93 452Z" />
<glyph unicode="+" glyph-name="plus" horiz-adv-x="487" d="M199 268H46L53 319H206L227 479H281L260 319H414L407 268H254L232 107H178L199 268Z" />
<glyph unicode="," glyph-name="comma" horiz-adv-x="235" d="M31 -44T40 -24Q46 -12 47 3T49 34T50 55Q51 69 60 77T83 85Q99 85 106 74T112 49Q108 16 103 -5T89 -45Q72 -75 34 -101L8 -66Q31 -44 40 -24Z" />
<glyph unicode="-" glyph-name="hyphen" horiz-adv-x="437" d="M66 334H354L347 278H59L66 334Z" />
<glyph unicode="." glyph-name="period" horiz-adv-x="240" d="M53 -4T42 7T31 34Q31 54 44 67T75 81Q92 81 103 70T114 42Q114 23 101 10T69 -4Q53 -4 42 7Z" />
<glyph unicode="/" glyph-name="slash" horiz-adv-x="305" d="M274 750H336L16 -70H-46L274 750Z" />
<glyph unicode="0" glyph-name="zero" horiz-adv-x="632" d="M192 -10T142 26T66 125T40 263Q40 297 44 325Q55 413 96 488T202 608T347 653Q420 653 470 616T546 517T572 378Q572 344 568 316Q557 228 516 154T410 35T265 -10Q192 -10 142 26ZM336 46T387 86T470
190T512 326Q515 353 515 379Q515 474 472 535T346 597Q281 597 229 558T144 456T101 319Q98 292 98 267Q98 172 142 109T269 46Q336 46 387 86Z" />
<glyph unicode="1" glyph-name="one" horiz-adv-x="341" d="M174 536T137 521T58 505L49 557Q87 557 130 579T253 652L275 666L284 665L196 0H138L214 568Q174 536 137 521Z" />
<glyph unicode="2" glyph-name="two" horiz-adv-x="508" d="M4 90T52 146T193 270Q213 284 224 290Q275 324 306 349T362 408T393 484Q394 490 394 503Q394 550 364 577T279 605Q219 605 173 573T103 481L60 508Q95 582 149 618T280 655Q361 655 404 616T448 508Q448
499 446 477Q439 424 414 385T356 318T263 247Q208 210 185 191Q134 154 105 124T62 55L423 57L415 0H-8L-6 15Q4 90 52 146Z" />
<glyph unicode="3" glyph-name="three" horiz-adv-x="518" d="M127 -12T74 15T-15 84L22 125Q89 44 192 44Q265 44 320 81T384 187Q385 194 385 206Q385 264 344 297T243 332H136L143 384H246Q278 384 312 403T369 453T392 519Q392 559 358 581T275 604Q239 604
200 592T131 555L109 602Q155 632 194 646T276 660Q352 660 401 623T450 524Q450 468 413 420T322 359Q376 350 409 307T442 202Q442 192 440 172Q432 113 397 72T310 9T197 -12Q127 -12 74 15Z" />
<glyph unicode="4" glyph-name="four" horiz-adv-x="513" d="M307 126H0L6 176L267 650H331L75 182H314L343 405H402L372 182H454L446 126H365L348 -3H290L307 126Z" />
<glyph unicode="5" glyph-name="five" horiz-adv-x="505" d="M137 -8T88 12T7 69L40 112Q97 47 185 47Q262 47 316 96T380 226Q382 246 382 253Q382 314 339 343T205 372Q176 372 135 367T73 356L110 641H433L425 585H161L137 420Q194 428 222 428Q322 428 380
379T438 247Q438 225 436 213Q428 150 394 100T306 21T192 -8Q137 -8 88 12Z" />
<glyph unicode="6" glyph-name="six" horiz-adv-x="552" d="M170 -19T124 10T53 91T28 212Q28 235 31 260Q42 345 89 423T211 560Q270 604 336 627T468 651L462 596Q405 597 348 576T239 513Q194 477 158 428T106 332Q135 377 186 405T289 434Q344 434 389 407T460
334T486 232Q486 165 451 107T357 15T231 -19Q170 -19 124 10ZM284 37T328 64T400 136T427 232Q427 294 387 336T286 378Q235 378 190 352T118 280T91 181Q91 119 131 78T234 37Q284 37 328 64Z" />
<glyph unicode="7" glyph-name="seven" horiz-adv-x="467" d="M382 584L55 585L62 641H467L466 633L136 0H73L382 584Z" />
<glyph unicode="8" glyph-name="eight" horiz-adv-x="532" d="M126 -16T73 29T19 152Q19 223 55 273T159 369Q96 407 96 478Q96 528 123 568T195 632T295 655Q342 655 380 637T439 588T461 517Q461 461 429 421T352 355Q400 333 428 294T456 201Q456 192 454 174Q442
85 376 35T215 -16Q126 -16 73 29ZM346 407T372 434T403 500L404 512Q404 551 374 576T295 601Q256 601 224 585T173 540T154 480Q154 449 173 431T226 400L288 379L300 376Q346 407 372 434ZM291 38T339 78T397 184Q398 191 398 204Q398 242 377 267T322 306T232
337L211 342Q206 338 196 331T187 324Q126 276 102 240T77 155Q77 100 114 69T217 38Q291 38 339 78Z" />
<glyph unicode="9" glyph-name="nine" horiz-adv-x="549" d="M357 652T403 623T474 543T499 423Q499 399 496 373Q486 288 439 210T316 73Q257 29 192 6T60 -18L66 37Q123 36 180 57T288 120Q334 156 370 205T421 301Q392 256 341 228T239 199Q183 199 138 225T68
298T42 399Q42 410 44 430Q52 491 88 542T180 622T296 652Q357 652 403 623ZM244 596T199 569T127 497T100 401Q100 339 140 297T241 255Q293 255 338 281T410 353T437 452Q437 514 397 555T294 596Q244 596 199 569Z" />
<glyph unicode=":" glyph-name="colon" horiz-adv-x="231" d="M304 -4T293 7T282 34Q282 54 295 67T326 81Q343 81 354 70T365 42Q365 23 352 10T320 -4Q304 -4 293 7ZM100 390T89 401T78 428Q78 448 91 461T122 475Q139 475 150 464T161 436Q161 417 148 404T116
390Q100 390 89 401Z" />
<glyph unicode=";" glyph-name="semicolon" horiz-adv-x="230" d="M105 390T94 401T83 428Q83 448 96 461T127 475Q144 475 155 464T166 436Q166 417 153 404T121 390Q105 390 94 401ZM278 -44T287 -24Q293 -12 294 3T296 34T297 55Q298 69 307 77T330 85Q346
85 353 74T359 49Q355 16 350 -5T336 -45Q319 -75 281 -101L255 -66Q278 -44 287 -24Z" />
<glyph unicode="&lt;" glyph-name="less" horiz-adv-x="486" d="M46 233L56 305L409 457L401 393L107 271L367 140L359 74L46 233Z" />
<glyph unicode="=" glyph-name="equal" horiz-adv-x="572" d="M116 399H457L450 347H109L116 399ZM95 239H436L429 187H88L95 239Z" />
<glyph unicode="&gt;" glyph-name="greater" horiz-adv-x="489" d="M50 138L349 269L84 391L92 455L408 303L399 231L42 72L50 138Z" />
<glyph unicode="?" glyph-name="question" horiz-adv-x="458" d="M76 222T115 271Q138 296 163 312T227 347Q377 418 377 531Q377 587 343 621T250 656Q216 656 184 643T132 610T112 568Q112 555 119 551T139 545L115 490Q88 492 72 513T55 564Q55 575 56 581Q63
617 91 647T163 694T254 712Q308 712 349 690T412 627T435 536Q435 518 432 498Q422 435 387 393T276 307L252 294Q212 273 198 264T169 240Q150 222 142 199T136 141L81 135Q76 222 115 271ZM90 -13T79 -2T68 27Q68 45 81 58T111 72Q128 72 139 61T150 32Q150
13 137 0T106 -13Q90 -13 79 -2Z" />
<glyph unicode="@" glyph-name="at" horiz-adv-x="727" d="M235 -60T177 -31T86 54T53 189Q53 214 56 241Q68 332 112 402T227 511T384 550Q460 550 518 519T608 432T640 304Q640 282 637 259Q627 181 585 134T479 87Q444 87 418 106T395 151Q380 125 355 113T302
100Q254 100 225 132T195 224Q195 246 197 258Q203 304 227 338T285 390T350 408Q356 408 382 406L414 403H461L434 194Q435 137 480 137Q519 137 546 174T580 266Q583 286 583 303Q583 390 529 443T383 496Q312 496 254 463T160 370T114 236Q111 212 111 190Q111
97 165 46T321 -6Q372 -6 422 6T507 39L518 -13Q465 -40 411 -50T311 -60Q235 -60 177 -31ZM343 154T374 203L382 218L402 349Q366 354 350 354Q311 354 284 326T251 253Q248 237 248 221Q248 154 303 154Q343 154 374 203Z" />
<glyph unicode="A" glyph-name="A" horiz-adv-x="726" d="M28 -13T8 5T-17 50L30 72Q33 60 41 52T60 43Q72 43 81 51T101 79L430 693H450L641 0H580L517 227H241L144 40Q130 15 107 1T59 -13Q28 -13 8 5ZM501 283L432 552L427 592L412 552L272 283H501Z" />
<glyph unicode="B" glyph-name="B" horiz-adv-x="642" d="M160 639T150 636T133 625Q125 620 119 610T112 589L59 594Q67 640 96 669Q113 682 133 688T184 695H398Q474 695 523 652T573 538Q573 529 571 511Q564 462 541 426T482 378Q479 378 473 375T449 367Q467
363 476 357Q516 338 538 300T560 210Q560 200 558 178Q534 -10 266 -10Q184 -10 145 -5L93 1L179 639Q160 639 150 636ZM482 45T501 186Q503 202 503 210Q503 269 463 302T359 335H265L273 390H357Q387 390 414 399T461 425Q515 465 515 539Q515 586 487 611T407
639H236L157 50L253 46L284 45Q482 45 501 186Z" />
<glyph unicode="C" glyph-name="C" horiz-adv-x="694" d="M246 -23T181 17T79 128T43 285Q43 303 47 339Q60 439 115 524T253 660T427 711Q481 711 530 695T610 648T641 573Q641 529 611 498T541 466Q511 466 486 487L523 529Q534 522 543 522Q558 522 570 536T582
570Q582 609 533 631T427 654Q348 654 278 610T162 492T104 333Q101 309 101 286Q101 215 129 158T209 67T333 34Q404 34 469 67T580 157L622 123Q565 51 488 14T331 -23Q246 -23 181 17Z" />
<glyph unicode="D" glyph-name="D" horiz-adv-x="763" d="M233 -8T197 -7T140 -5L93 0L178 634Q159 634 149 631T132 620Q125 615 119 604T111 584L58 589Q66 635 95 664Q113 677 133 683T184 690L438 689Q517 687 577 650T671 546T704 395Q704 363 700 336Q678
164 570 78T270 -8Q233 -8 197 -7ZM434 48T528 123T642 341Q646 366 646 397Q646 506 587 569T423 633H235L157 53L186 52Q242 48 273 48Q434 48 528 123Z" />
<glyph unicode="E" glyph-name="E" horiz-adv-x="615" d="M158 628T148 625T131 614Q124 609 118 598T110 578L57 583Q65 629 94 658Q112 671 132 677T183 684H608L601 628H234L203 390H453L446 334H195L159 56H525L518 0H93L177 628Q158 628 148 625Z" />
<glyph unicode="F" glyph-name="F" horiz-adv-x="603" d="M158 627T148 624T131 613Q124 608 118 597T110 577L57 582Q65 628 94 657Q112 670 132 676T183 683H608L601 627H234L203 389H453L445 333H195L151 -1H93L177 627Q158 627 148 624Z" />
<glyph unicode="G" glyph-name="G" horiz-adv-x="706" d="M647 342L637 259Q626 177 579 113T463 14T323 -21Q240 -21 176 19T78 127T43 280Q43 305 46 332Q59 431 112 515T247 649T421 699Q469 699 519 684T601 636T628 552Q622 511 596 486T533 460Q518 460
506 466T485 481L516 520Q519 517 525 515T535 513Q551 513 564 529T577 566Q577 605 528 624T424 643Q346 643 276 600T160 483T103 325Q100 304 100 284Q100 217 128 160T206 69T320 35Q382 35 439 64T535 144T581 256L585 286H349L356 342H647Z" />
<glyph unicode="H" glyph-name="H" horiz-adv-x="702" d="M159 601T159 608Q159 623 152 632T132 641Q106 641 87 614L46 648Q60 669 82 683T133 698Q172 698 194 674T217 610Q217 599 216 593L188 384H546L586 684H644L554 0H496L539 328H181L138 0H80L158 597Q159
601 159 608Z" />
<glyph unicode="I" glyph-name="I" horiz-adv-x="253" d="M135 684H194L104 0H45L135 684Z" />
<glyph unicode="J" glyph-name="J" horiz-adv-x="501" d="M88 -7T50 37T11 149Q11 158 13 178L67 169Q66 162 66 148Q66 102 93 76T176 49Q248 49 284 91T327 193L384 617Q364 605 331 605Q307 605 291 610T252 626Q238 632 225 636T199 641Q181 641 165 635T118
616L97 668Q141 685 161 690T200 696Q214 696 238 689T285 671Q309 660 334 660Q347 660 369 671T393 689L450 687L384 186Q373 103 321 48T172 -7Q88 -7 50 37Z" />
<glyph unicode="K" glyph-name="K" horiz-adv-x="673" d="M160 616T154 628T132 640Q117 640 105 632T87 613L46 647Q60 668 82 682T133 697Q172 697 194 673T217 609Q217 598 216 592L187 372H228Q261 372 293 387Q331 402 347 426Q383 462 429 533Q455 569 523
685L591 683Q525 582 519 572Q504 547 491 528T468 491L432 442Q414 416 406 406Q385 382 373 370T344 346L500 62Q508 48 523 48Q533 48 541 52T555 63L597 29Q582 11 561 2T520 -8Q499 -8 482 3T454 32L291 325Q268 318 252 316T213 314H183L140 1H80L158 596Q160
616 154 628Z" />
<glyph unicode="L" glyph-name="L" horiz-adv-x="524" d="M135 684H193L110 56H447L439 0H45L135 684Z" />
<glyph unicode="M" glyph-name="M" horiz-adv-x="987" d="M30 -17T10 -1T-18 39L34 58Q38 48 43 44T60 39Q82 39 93 62L302 684H359L487 113L492 74L508 113L788 684H846L892 0H835L799 563V601L783 562L512 0H454L333 561L327 601L316 561L147 52Q137 22 113
3T58 -17Q30 -17 10 -1Z" />
<glyph unicode="N" glyph-name="N" horiz-adv-x="758" d="M30 -13T11 -2T-20 29L28 59Q32 52 40 48T54 44Q68 44 80 56T94 82L174 684H210L301 559L557 151L568 129L639 683H699L609 0H589L227 563L217 584L154 77Q148 37 119 12T54 -13Q30 -13 11 -2Z" />
<glyph unicode="O" glyph-name="O" horiz-adv-x="774" d="M252 -17T186 21T82 128T44 281Q44 307 47 332L49 351Q62 449 115 529T250 654T423 700Q508 700 574 661T677 554T714 399Q714 374 711 347L709 328Q696 229 643 151T510 28T338 -17Q252 -17 186 21ZM414
39T482 77T595 183T651 332L653 351Q656 375 656 397Q656 469 626 525T543 612T420 644Q344 644 276 605T163 497T107 347L104 328Q101 306 101 283Q101 212 130 157T213 70T337 39Q414 39 482 77Z" />
<glyph unicode="P" glyph-name="P" horiz-adv-x="589" d="M158 628T148 625T131 614Q124 609 118 598T110 578L57 583Q65 629 94 658Q112 671 132 677T183 684H391Q469 684 511 636T554 509Q554 490 551 469Q537 364 470 311T311 257Q284 257 239 262L243 316Q288
313 308 313Q472 313 493 474Q495 486 495 508Q495 569 463 598T373 628H234L151 -1H93L177 628Q158 628 148 625Z" />
<glyph unicode="Q" glyph-name="Q" horiz-adv-x="756" d="M245 0Q146 25 95 101T44 285Q44 318 48 345Q61 445 111 524T240 649T414 694Q501 694 565 656T663 551T697 397Q697 365 693 338Q680 238 629 159T500 36T326 -9H298L230 -94L302 -122Q327 -131 355 -136T405
-141Q430 -141 451 -134T505 -105L526 -151Q487 -178 464 -185T411 -193Q375 -193 346 -187T287 -170L194 -138L146 -199L107 -166L245 0ZM410 45T476 84T583 191T635 346Q639 371 639 400Q639 508 580 573T413 639Q332 639 266 601T159 494T106 340Q102 304 102
286Q102 178 161 112T328 45Q410 45 476 84Z" />
<glyph unicode="R" glyph-name="R" horiz-adv-x="684" d="M158 628T148 625T131 614Q124 609 118 598T110 578L57 583Q65 629 94 658Q112 671 132 677T183 684H399Q442 684 473 666Q513 645 535 603T557 507Q557 496 555 474Q549 423 524 381T460 315T379 290L353
289L362 285Q369 283 379 274T395 256L511 60Q519 45 532 45Q551 45 565 64L608 28Q594 10 574 0T531 -10Q486 -10 463 30L369 194Q347 232 323 251T249 276L255 332H338Q409 332 454 380T500 507Q500 562 471 595T391 628H234L151 0H93L177 628Q158 628 148 625Z"
/>
<glyph unicode="S" glyph-name="S" horiz-adv-x="543" d="M165 -21T117 2T37 65T1 154L51 171Q58 111 106 73T223 34Q273 34 317 58T387 125T414 217Q414 258 384 288T273 355Q190 393 154 431T118 519Q118 571 145 614T218 681T319 706Q383 706 423 676T464 597Q464
568 449 544T409 508T354 499L362 551Q379 549 393 562T408 594Q408 617 382 634T319 651Q282 651 250 634T197 588T177 527Q177 491 207 462T307 399Q395 359 433 316T472 217Q472 153 437 98T345 11T221 -21Q165 -21 117 2Z" />
<glyph unicode="T" glyph-name="T" horiz-adv-x="589" d="M152 628Q137 628 126 617T113 592L58 596Q62 631 90 659Q120 684 154 684H595L587 628H360L277 0H219L302 628H152Z" />
<glyph unicode="U" glyph-name="U" horiz-adv-x="712" d="M261 -10T212 20T137 104T112 222Q112 245 115 269L158 597Q159 601 159 608Q159 623 152 632T132 641Q106 641 87 614L46 648Q60 669 82 683T133 698Q172 698 194 674T217 610Q217 599 216 593L173 265Q170
244 170 223Q170 144 211 95T332 46Q396 46 444 78T519 162T554 269L609 684H667L612 265Q603 194 568 131T472 29T331 -10Q261 -10 212 20Z" />
<glyph unicode="V" glyph-name="V" horiz-adv-x="649" d="M140 635T121 635Q114 635 110 633Q104 632 99 629T91 621L52 654Q65 677 96 688Q112 694 127 694Q154 694 173 677T200 628L310 122L314 84L328 123L593 685H652L332 0H276L146 611Q140 635 121 635Z" />
<glyph unicode="W" glyph-name="W" horiz-adv-x="1061" d="M152 626T145 632T129 639Q123 639 120 638Q104 633 101 626L62 660Q76 683 107 694Q119 698 134 698Q163 698 183 680T209 629L306 100L307 79L314 100L574 685H631L736 100L739 72L745 100L1005 685H1064L757
0H700L591 591L326 0H269L154 614Q152 626 145 632Z" />
<glyph unicode="X" glyph-name="X" horiz-adv-x="602" d="M281 405L494 684H564L308 352L433 64Q438 51 454 51Q470 51 480 63L525 27Q510 10 490 2T448 -7Q417 -7 400 10T368 66L269 309L57 0H-13L240 363L76 684H142L281 405Z" />
<glyph unicode="Y" glyph-name="Y" horiz-adv-x="583" d="M141 636T124 636Q116 636 108 631Q94 627 91 618L47 645Q55 667 86 686Q106 696 128 696Q152 696 171 682T200 642L312 361L531 685H594L334 299L296 0H237L276 297L149 616Q141 636 124 636Z" />
<glyph unicode="Z" glyph-name="Z" horiz-adv-x="561" d="M420 628H101L109 684H526L109 95L135 88Q159 82 198 69Q235 56 263 49T315 42Q348 42 384 55T448 95L485 55Q406 -14 313 -14Q276 -14 242 -6T156 21Q148 24 123 32T75 46L31 -16L-15 13L420 628Z" />
<glyph unicode="[" glyph-name="bracketleft" horiz-adv-x="357" d="M140 750H369L362 694H190L83 -118H255L248 -174H18L140 750Z" />
<glyph unicode="\" glyph-name="backslash" horiz-adv-x="305" d="M62 750H123L227 -70H166L62 750Z" />
<glyph unicode="]" glyph-name="bracketright" horiz-adv-x="357" d="M189 -174H-41L-34 -118H138L245 694H73L80 750H310L189 -174Z" />
<glyph unicode="^" glyph-name="asciicircum" horiz-adv-x="482" d="M256 524L100 330L56 363L259 615H278L415 363L363 328L256 524Z" />
<glyph unicode="_" glyph-name="underscore" horiz-adv-x="576" d="M12 -78H439L432 -134H5L12 -78Z" />
<glyph unicode="`" glyph-name="grave" horiz-adv-x="226" d="M66 698L113 740L224 590L194 560L66 698Z" />
<glyph unicode="a" glyph-name="a" horiz-adv-x="570" d="M113 -10T66 49T19 201Q19 225 22 249Q32 325 68 384T163 475T293 508Q347 508 410 499H469L415 84Q414 80 414 74Q414 45 439 45Q458 45 471 63L510 27Q492 6 474 -2T433 -10Q398 -10 375 14T357 72Q328
31 288 11T201 -10Q113 -10 66 49ZM249 44T287 67T347 127Q367 156 370 190L406 450L342 452L288 454Q199 454 146 396T80 245Q77 223 77 201Q77 132 108 88T204 44Q249 44 287 67Z" />
<glyph unicode="b" glyph-name="b" horiz-adv-x="532" d="M142 -10T98 -4Q52 2 27 10L120 726H178L139 434Q168 472 209 490T294 508Q377 508 424 451T472 297Q472 273 469 246Q454 134 385 62T192 -10Q142 -10 98 -4ZM294 44T346 101T411 251Q414 277 414 298Q414
372 380 413T290 454Q264 454 239 445T193 421Q139 389 126 326L89 53L139 47Q163 44 192 44Q294 44 346 101Z" />
<glyph unicode="c" glyph-name="c" horiz-adv-x="480" d="M124 -6T71 45T18 190Q18 205 22 241Q32 321 68 382T158 478T278 512Q347 512 391 474T436 378Q436 365 435 358L381 362Q382 367 382 376Q382 413 354 435T279 458Q201 458 147 397T79 234Q76 213 76
195Q76 123 114 86T225 48Q261 48 298 59T385 95L408 51Q319 -6 223 -6Q124 -6 71 45Z" />
<glyph unicode="d" glyph-name="d" horiz-adv-x="568" d="M113 -10T66 49T19 201Q19 225 22 249Q32 325 68 383T162 475T292 508Q346 508 409 499L440 727H498L413 84Q412 80 412 74Q412 45 437 45Q456 45 469 63L508 27Q491 6 473 -2T431 -10Q396 -10 373 14T355
72Q326 31 287 11T201 -10Q113 -10 66 49ZM249 44T286 66T346 127Q364 152 369 190L405 446L383 449Q341 456 311 456Q203 456 148 401T80 250Q77 229 77 208Q77 135 110 90T206 44Q249 44 286 66Z" />
<glyph unicode="e" glyph-name="e" horiz-adv-x="484" d="M119 -10T68 44T17 189Q17 211 20 233Q29 301 61 364T149 467T275 508Q343 508 388 471T434 372Q434 289 367 244T185 200L77 199Q75 123 110 84T217 44Q262 44 301 57T379 96L405 54Q364 24 315 7T216
-10Q119 -10 68 44ZM276 252T322 277T376 358Q377 363 377 374Q377 415 349 434T276 454Q221 454 179 422T111 342T81 250L202 252Q276 252 322 277Z" />
<glyph unicode="f" glyph-name="f" horiz-adv-x="375" d="M109 629T153 685T280 742Q340 742 373 710T406 619Q406 609 404 589Q394 504 335 457T186 415L139 418L117 252H260L253 198H110L49 -260H-9L92 504Q109 629 153 685ZM261 467T304 507T348 617Q348 652
330 670T277 688Q225 688 194 643T150 503L145 467H190Q261 467 304 507Z" />
<glyph unicode="g" glyph-name="g" horiz-adv-x="528" d="M158 -279T121 -242T83 -148Q83 -59 156 -4Q93 11 57 69T20 210Q20 233 23 257Q33 333 70 390T165 479T295 511Q333 511 350 508L408 501H464L382 -118Q372 -191 327 -235T215 -279Q158 -279 121 -242ZM241
47T287 84Q318 105 339 132T363 182L399 448L311 453H280Q231 453 188 426T117 352T80 246Q77 227 77 208Q77 138 110 93T195 47Q241 47 287 84ZM261 -221T288 -192T325 -111L351 80Q349 78 335 60T302 26Q287 15 253 -5Q229 -18 210 -31Q153 -62 144 -130Q143
-135 143 -144Q143 -178 165 -199T221 -221Q261 -221 288 -192Z" />
<glyph unicode="h" glyph-name="h" horiz-adv-x="569" d="M412 68T419 60T438 51Q459 51 470 69L509 34Q500 18 480 7T436 -5Q396 -5 374 21T356 87L390 349Q392 367 392 374Q392 459 299 459Q252 459 214 433T131 356L84 3H26L121 729H179L139 428Q210 513 307
513Q378 513 414 480T450 382Q450 360 448 348L413 82Q412 68 419 60Z" />
<glyph unicode="i" glyph-name="i" horiz-adv-x="253" d="M88 68T95 60T114 51Q135 51 146 69L186 34Q176 18 156 7T112 -5Q72 -5 50 21T32 87L86 500H144L89 82Q88 68 95 60ZM107 565T96 576T85 603Q85 623 98 636T129 650Q146 650 157 639T168 611Q168 592 155
579T123 565Q107 565 96 576Z" />
<glyph unicode="j" glyph-name="j" horiz-adv-x="220" d="M-67 -260T-87 -247T-120 -213L-72 -182Q-61 -204 -40 -204Q-18 -204 -8 -188T5 -153L91 501H149L63 -157Q56 -207 29 -233T-40 -260Q-67 -260 -87 -247ZM112 565T101 576T90 603Q90 623 103 636T134 650Q151
650 162 639T173 611Q173 592 160 579T128 565Q112 565 101 576Z" />
<glyph unicode="k" glyph-name="k" horiz-adv-x="538" d="M179 726L138 416Q167 461 211 486T303 512Q363 512 400 476T437 380Q437 317 405 275T326 214L392 63Q394 56 400 52T413 47Q420 47 426 50T435 58L474 22Q446 -9 411 -9Q387 -9 368 2T339 35L267 199H110L83
0H25L121 726H179ZM269 255T302 269Q340 284 361 312T382 378Q382 413 360 434T297 456Q246 456 206 422T140 324Q126 295 119 253L227 255Q269 255 302 269Z" />
<glyph unicode="l" glyph-name="l" horiz-adv-x="245" d="M88 68T95 60T114 51Q135 51 146 69L186 34Q176 18 156 7T112 -5Q72 -5 50 21T32 87L116 726H174L89 82Q88 68 95 60Z" />
<glyph unicode="m" glyph-name="m" horiz-adv-x="834" d="M774 34Q765 18 745 7T701 -5Q661 -5 639 21T621 87L656 352Q660 406 641 430T578 455Q489 455 425 355L377 0H319L364 338Q366 358 366 367Q366 409 347 432T289 455Q243 455 201 427T136 357L88 0H30L76
352Q79 372 79 388Q79 439 51 467L94 505Q109 493 121 472T138 426Q204 509 295 509Q344 509 376 486T419 418Q487 509 580 509Q642 509 678 473T715 377Q715 369 713 349L678 82Q677 68 684 60T702 51Q712 51 721 56T735 69L774 34Z" />
<glyph unicode="n" glyph-name="n" horiz-adv-x="574" d="M514 34Q505 18 485 7T441 -5Q401 -5 379 21T361 87L394 338Q396 358 396 368Q396 456 307 456Q257 456 218 430T136 353L88 0H30L77 353Q79 377 79 386Q79 439 52 468L94 506Q110 494 123 472T139 423Q177
469 220 489T314 510Q385 510 422 472T455 360L418 82Q417 68 424 60T442 51Q452 51 461 56T475 69L514 34Z" />
<glyph unicode="o" glyph-name="o" horiz-adv-x="564" d="M168 -10T121 17T49 93T23 207Q23 228 26 252Q35 327 73 385T168 477T294 510Q356 510 403 482T476 405T502 290Q502 270 499 247Q489 172 452 114T357 23T231 -10Q168 -10 121 17ZM314 44T371 102T442
253Q445 273 445 291Q445 366 404 411T293 456Q239 456 194 429T120 355T83 246Q80 227 80 208Q80 133 121 89T233 44Q314 44 371 102Z" />
<glyph unicode="p" glyph-name="p" horiz-adv-x="534" d="M382 508T428 450T475 300Q475 283 471 249Q456 133 385 62T203 -10Q176 -10 88 3L52 -260H-3L78 354Q81 374 81 390Q81 441 53 469L95 507Q110 495 122 474T139 429Q190 508 294 508Q382 508 428 450ZM292
44T346 99T413 250Q416 274 416 296Q416 367 385 410T295 454Q238 454 190 418T129 326L92 53Q180 44 200 44Q292 44 346 99Z" />
<glyph unicode="q" glyph-name="q" horiz-adv-x="532" d="M326 26T286 8T200 -10Q113 -10 66 49T19 203Q19 226 22 251Q37 369 111 438T308 508Q343 508 388 503T465 488L368 -261H310L353 63Q326 26 286 8ZM258 44T306 80T367 172L405 446Q353 455 310 455Q107
455 81 251Q78 226 78 201Q78 129 109 87T201 44Q258 44 306 80Z" />
<glyph unicode="r" glyph-name="r" horiz-adv-x="356" d="M316 510T345 501L340 445Q313 452 286 452Q235 452 202 425Q165 402 136 355L88 0H30L76 352Q79 372 79 388Q79 439 51 467L94 505Q110 494 122 472T138 424Q172 471 200 489Q237 510 286 510Q316 510 345 501Z" />
<glyph unicode="s" glyph-name="s" horiz-adv-x="412" d="M106 -12T64 9T-14 67L22 105Q54 75 87 59T163 42Q221 42 256 72T291 154Q291 176 279 190T249 214T181 247Q136 267 111 281T70 317T55 368Q55 380 56 386Q63 444 107 478T219 513Q255 513 288 503T344
473L316 432Q278 459 220 459Q170 459 142 437T114 376Q114 356 126 343T154 321T216 291Q287 260 318 233T350 158Q350 144 349 137Q340 69 289 29T160 -12Q106 -12 64 9Z" />
<glyph unicode="t" glyph-name="t" horiz-adv-x="345" d="M89 -10T62 19T34 106Q34 125 37 146L100 625H158L141 498H294L286 444H134L94 142Q92 122 92 113Q92 80 105 62T149 44Q206 44 244 106L285 73Q257 31 224 11T147 -10Q89 -10 62 19Z" />
<glyph unicode="u" glyph-name="u" horiz-adv-x="570" d="M510 27Q492 6 474 -2T433 -10Q398 -10 375 14T357 72Q318 32 277 12T186 -8Q113 -8 76 29T45 141L73 355Q76 375 76 391Q76 442 48 470L90 508Q109 494 123 467T137 408Q137 397 136 391L106 163Q104
141 104 132Q104 90 125 68T193 46Q247 46 289 70T364 147L412 500H470L415 84Q414 80 414 74Q414 45 439 45Q458 45 471 63L510 27Z" />
<glyph unicode="v" glyph-name="v" horiz-adv-x="474" d="M60 433T50 448T25 472L61 515Q107 483 123 407L202 77L410 499H469L223 0H162L65 416Q60 433 50 448Z" />
<glyph unicode="w" glyph-name="w" horiz-adv-x="742" d="M60 435T49 451T26 476L56 516Q105 478 118 407L179 87L364 500H419L495 87L680 500H736L512 1H457L381 414L196 1H140L64 417Q60 435 49 451Z" />
<glyph unicode="x" glyph-name="x" horiz-adv-x="470" d="M200 294L349 500H414L232 252L319 62Q323 55 327 51T342 47Q359 47 369 61L413 28Q398 10 379 0T340 -10Q318 -10 300 1T272 34L190 206L37 0H-27L160 250L38 500H102L200 294Z" />
<glyph unicode="y" glyph-name="y" horiz-adv-x="532" d="M468 500L420 138L386 -116Q376 -193 332 -238T222 -284Q165 -284 129 -246T92 -148Q92 -139 94 -123Q100 -82 118 -51T166 -6Q108 -2 75 32T41 119Q41 125 43 141L71 358Q74 378 74 394Q74 445 46 473L88
511Q109 495 123 464T135 397L104 163Q102 141 102 134Q102 90 123 69T190 48Q233 48 270 67T345 131Q356 141 360 150T366 174L410 500H468ZM356 77Q336 49 321 36T302 20L239 -17Q197 -37 176 -63T150 -127Q149 -134 149 -147Q149 -185 168 -205T223 -226Q263
-226 291 -196T328 -116L356 77Z" />
<glyph unicode="z" glyph-name="z" horiz-adv-x="458" d="M312 444H63L70 498H418L416 485L102 90L167 61Q211 43 270 43Q295 43 315 50T368 78L391 30Q358 7 331 -3T270 -13Q215 -13 151 9L60 41L15 -20L-30 13L312 444Z" />
<glyph unicode="{" glyph-name="braceleft" horiz-adv-x="305" d="M148 -165T126 -158T81 -135T46 -92Q36 -78 36 -51Q36 -43 38 -25Q40 -7 48 26T58 69Q68 110 77 152T86 214Q86 226 84 229Q67 255 16 261L20 316Q75 323 97 352Q108 364 111 405T116 519Q118
581 120 599Q125 648 144 675Q167 705 205 721T305 750L315 704Q276 696 242 681T194 642Q182 627 179 601Q178 594 176 519Q172 403 169 374Q165 343 145 320T93 287Q144 275 144 209Q144 176 135 140L123 89Q99 -5 96 -33Q95 -38 95 -48Q95 -57 97 -71Q107 -94
135 -106T203 -127L186 -173Q148 -165 126 -158Z" />
<glyph unicode="|" glyph-name="bar" horiz-adv-x="291" d="M163 750H221L113 -70H55L163 750Z" />
<glyph unicode="}" glyph-name="braceright" horiz-adv-x="305" d="M2 -119T34 -105T82 -65Q93 -53 96 -27Q100 -2 102 92Q102 132 103 146Q105 206 121 242T183 289Q157 297 142 322T131 380Q133 401 161 520Q178 593 180 607Q181 613 181 625Q181 640 179 648Q162
686 72 704L90 750Q147 737 181 720T230 669Q239 655 239 625Q239 604 237 593Q235 576 218 508Q204 454 196 419T188 362Q188 352 191 346Q200 333 217 326T260 316L256 261Q202 255 179 223Q169 212 166 172T160 60Q158 -10 155 -31Q151 -71 132 -98Q112 -123
86 -137T37 -158T-29 -173L-39 -127Q2 -119 34 -105Z" />
<glyph unicode="~" glyph-name="asciitilde" horiz-adv-x="556" d="M107 317T133 326T193 336Q219 336 236 332T277 318Q295 310 308 307T337 303Q380 303 423 336L453 293Q422 269 398 261T337 250Q315 250 299 254T256 268Q236 276 222 280T193 284Q150 284
107 251L77 294Q107 317 133 326Z" />
<glyph unicode="&#xa0;" glyph-name="uni00A0" horiz-adv-x="272" />
<glyph unicode="&#xa1;" glyph-name="exclamdown" horiz-adv-x="245" d="M153 523T164 512T175 483Q175 464 162 451T130 438Q114 438 104 449T93 478Q93 497 106 510T136 523Q153 523 164 512ZM94 371H145L79 -194H11L94 371Z" />
<glyph unicode="&#xa2;" glyph-name="cent" horiz-adv-x="542" d="M123 80T90 148Q63 192 63 264Q63 280 67 318Q80 419 137 493Q200 566 279 579L294 683H353L338 580Q369 576 395 563T437 531Q469 497 469 447Q469 434 468 428L413 432Q414 438 414 449Q414
480 399 500Q375 524 334 531L277 116Q313 119 339 129T387 150T418 165L440 121Q404 97 365 82Q319 67 273 64L256 -51H197L214 66Q123 80 90 148ZM243 521T216 497T170 443Q131 385 119 300Q116 279 116 260Q116 214 136 176Q164 133 218 120L275 529Q243 521
216 497Z" />
<glyph unicode="&#xa3;" glyph-name="sterling" horiz-adv-x="534" d="M461 29Q399 -14 323 -14Q294 -14 260 -6Q240 -3 208 6T124 32Q100 -9 93 -14L45 11Q66 42 76 67T91 126L112 284H65L72 338H119L135 457Q147 552 208 602T361 653Q404 653 447 642T516 607L493
567Q464 586 430 593T353 601Q287 601 245 563T193 453L177 338H347L340 284H170L147 106L141 89Q215 64 238 57T269 48Q289 43 318 43Q382 43 441 80L461 29Z" />
<glyph unicode="&#xa4;" glyph-name="currency" horiz-adv-x="697" d="M139 137Q110 183 110 248Q110 268 113 290Q119 337 136 375Q154 413 179 439L93 542L139 586L228 481Q256 498 289 511Q326 521 362 521Q400 521 433 509Q464 498 489 479L607 586L644 542L529
437Q558 391 558 327Q558 308 555 285Q550 245 533 201Q513 163 490 137L577 34L530 -10L441 96Q413 79 380 66Q347 55 306 55Q267 55 236 67Q210 74 179 96L63 -10L26 34L139 137ZM344 108T377 123Q412 137 434 161Q461 185 475 220Q492 254 496 293Q498 305 498
328Q498 385 472 421Q433 467 361 467Q335 467 323 464T293 453Q260 440 236 416Q210 394 196 359Q179 326 173 285Q171 261 171 250Q171 229 174 211Q184 178 199 156Q220 132 244 120Q271 108 308 108Q344 108 377 123Z" />
<glyph unicode="&#xa5;" glyph-name="yen" horiz-adv-x="631" d="M258 169H70L77 222H263L274 301L267 318H88L96 372H245L102 640H168L311 368L524 640H593L382 372H527L520 318H346L334 301L323 222H508L501 169H316L294 0H236L258 169Z" />
<glyph unicode="&#xa6;" glyph-name="brokenbar" horiz-adv-x="292" d="M163 750H222L173 380H114L163 750ZM104 300H163L114 -70H55L104 300Z" />
<glyph unicode="&#xa7;" glyph-name="section" horiz-adv-x="416" d="M134 3T167 23Q214 44 214 91Q214 111 205 126T177 159Q159 173 150 179Q136 189 122 201T97 226Q60 263 60 311Q60 370 96 417Q115 436 135 444Q115 476 115 513Q115 524 116 530Q121 560
135 583T178 625Q235 658 330 673L339 620Q299 612 269 602T224 583Q201 572 190 554T178 514Q178 495 187 480T214 447L240 427Q278 399 294 380Q313 362 322 343T332 298Q332 272 323 242T295 189Q281 177 255 162Q276 131 276 92Q276 23 213 -19Q156 -52 61
-67L52 -14Q134 3 167 23ZM245 218T258 243T272 290Q272 307 265 319T244 348Q230 360 212 372Q186 392 175 402Q149 388 135 365T120 315Q120 298 127 285T147 257Q155 249 166 241T184 229Q204 216 217 204Q245 218 258 243Z" />
<glyph unicode="&#xa8;" glyph-name="dieresis" horiz-adv-x="415" d="M97 567T86 578T75 605Q75 625 88 638T119 652Q136 652 147 641T158 613Q158 594 145 581T113 567Q97 567 86 578ZM312 567T301 578T290 605Q290 625 303 638T334 652Q351 652 362 641T373
613Q373 594 360 581T328 567Q312 567 301 578Z" />
<glyph unicode="&#xa9;" glyph-name="copyright" horiz-adv-x="739" d="M250 -50T199 -28T112 37Q54 104 54 209Q54 232 57 256Q65 320 93 376T165 475Q212 517 269 538T389 559Q454 559 505 536T590 471Q647 405 647 300Q647 276 644 252Q635 186 607 131T536
35Q492 -5 435 -27T313 -50Q250 -50 199 -28ZM369 -3T417 17T499 72Q537 106 561 155T593 261Q596 282 596 304Q596 390 552 444Q523 477 481 494T388 511Q336 511 288 493T202 438Q164 404 141 357T109 252Q106 228 106 205Q106 122 149 66Q178 32 221 15T314
-3Q369 -3 417 17ZM279 85T246 123T212 224Q212 233 214 255Q224 328 270 376T383 424Q421 424 445 410T477 381L441 345Q429 361 416 367T382 373Q346 373 319 351T279 294T265 225Q265 184 285 161T343 137Q370 137 394 147T448 175L467 128Q438 107 404 96T339
85Q279 85 246 123Z" />
<glyph unicode="&#xaa;" glyph-name="ordfeminine" horiz-adv-x="417" d="M127 369T95 408T62 504Q62 555 85 597T149 664T241 689Q275 689 315 683H361L328 432V431Q328 423 338 423Q343 423 349 426T357 434L394 407Q384 388 366 379T332 369Q314 369 297 383T281
408Q268 392 240 381T186 369Q127 369 95 408ZM212 423T233 434T266 466Q273 475 275 485T278 496L297 631Q250 636 234 636Q184 636 153 598T121 505Q121 469 138 446T188 423Q212 423 233 434Z" />
<glyph unicode="&#xab;" glyph-name="guillemotleft" horiz-adv-x="547" d="M217 230T217 251Q217 270 253 301L478 485L511 442L273 252L461 61L419 18L242 203Q217 230 217 251ZM15 230T15 251Q15 270 51 301L276 485L309 442L71 252L259 61L217 18L40 203Q15
230 15 251Z" />
<glyph unicode="&#xac;" glyph-name="logicalnot" horiz-adv-x="546" d="M353 264H64L72 322H421L398 147H338L353 264Z" />
<glyph unicode="&#xad;" glyph-name="uni00AD" horiz-adv-x="437" d="M66 334H354L347 278H59L66 334Z" />
<glyph unicode="&#xae;" glyph-name="registered" horiz-adv-x="739" d="M640 601T654 557T669 462Q669 439 666 415Q657 349 629 294T558 198Q513 157 456 135T334 113Q204 113 133 200Q105 233 90 276T75 369Q75 385 79 419Q87 484 115 540T187 638Q234 680
291 701T410 722Q475 722 526 699T611 634Q640 601 654 557ZM559 269T583 318T615 424Q618 445 618 466Q618 507 607 543T574 607Q545 640 503 657T410 674Q357 674 309 656T224 601Q185 567 162 520T130 415Q127 393 127 371Q127 285 171 229Q200 195 242 178T335
160Q391 160 438 180T521 235Q559 269 583 318ZM489 291T494 296L513 257Q508 250 498 247T477 243Q465 243 452 249T432 267L385 345Q385 346 378 362T328 379L309 249H256L301 594H411Q447 594 472 566T497 502Q497 478 483 448T436 406Q421 401 385 401Q397
401 405 394T424 372L468 304Q473 296 476 294T482 291Q489 291 494 296ZM407 431T425 453T444 506Q444 525 434 535T405 546H348L333 431H381Q407 431 425 453Z" />
<glyph unicode="&#xaf;" glyph-name="overscore" horiz-adv-x="415" d="M94 623H381L374 569H87L94 623Z" />
<glyph unicode="&#xb0;" glyph-name="degree" horiz-adv-x="434" d="M166 396T135 427T104 510Q104 518 106 534Q114 599 156 631T251 664Q303 664 333 633T364 550Q364 542 362 526Q354 462 312 429T217 396Q166 396 135 427ZM260 445T286 474T312 548Q312 579
296 597T249 615Q208 615 183 584T157 510Q157 480 173 463T220 445Q260 445 286 474Z" />
<glyph unicode="&#xb1;" glyph-name="plusminus" horiz-adv-x="510" d="M211 268H58L64 319H218L239 479H293L272 319H425L418 268H265L244 107H190L211 268ZM29 52H390L383 0H22L29 52Z" />
<glyph unicode="&#xb2;" glyph-name="uni00B2" horiz-adv-x="309" d="M16 252T34 281T115 354Q158 381 178 399T198 445Q198 475 161 475Q106 475 87 417L37 442Q55 484 87 507T164 531Q208 531 233 508T258 445Q258 401 235 374T162 313Q151 306 129 290Q109
277 100 270T82 251L250 252L243 199H9L12 224Q16 252 34 281Z" />
<glyph unicode="&#xb3;" glyph-name="uni00B3" horiz-adv-x="307" d="M72 448T42 465T-3 506L33 543Q51 522 68 512T111 502Q146 502 169 519T193 563Q193 583 178 595T139 607H87L95 662H143Q164 662 180 675T197 708Q197 735 153 735Q106 735 78 709L54 753Q99
789 153 789Q196 789 224 768T253 710Q253 685 241 662T211 632Q232 621 241 603T251 563Q251 510 211 479T115 448Q72 448 42 465Z" />
<glyph unicode="&#xb4;" glyph-name="acute" horiz-adv-x="218" d="M55 593L191 754L234 716L81 565L55 593Z" />
<glyph unicode="&#xb5;" glyph-name="uni00B5" horiz-adv-x="592" d="M183 498L138 162L140 160Q137 141 137 125Q137 91 151 69Q174 42 226 42Q280 42 317 72Q356 98 397 146L444 498H497L450 142Q448 118 448 107Q448 54 472 24L437 -7Q414 11 407 38Q395 63
396 87Q323 -10 225 -10Q185 -10 165 -2Q142 3 121 19L85 -250H31L130 498H183Z" />
<glyph unicode="&#xb6;" glyph-name="paragraph" horiz-adv-x="629" d="M137 260T99 305Q69 340 69 397Q69 415 72 434Q85 534 148 577Q215 617 369 617H463L541 614L460 1H404L477 557H349L276 1H218L253 250Q137 260 99 305Z" />
<glyph unicode="&#xb7;" glyph-name="middot" horiz-adv-x="267" d="M97 267T82 282T66 321Q66 347 85 366T130 386Q152 386 167 371T182 333Q182 306 163 287T120 267Q97 267 82 282Z" />
<glyph unicode="&#xb8;" glyph-name="cedilla" horiz-adv-x="230" d="M31 -179T47 -159T63 -115Q63 -85 22 -85H-9L13 11H73L55 -39Q84 -43 99 -64T114 -114Q114 -142 100 -171T59 -218T-7 -232L7 -179Q31 -179 47 -159Z" />
<glyph unicode="&#xb9;" glyph-name="uni00B9" horiz-adv-x="217" d="M66 434T28 435L19 486Q60 486 142 537L167 536L122 200H65L99 451Q66 434 28 435Z" />
<glyph unicode="&#xba;" glyph-name="ordmasculine" horiz-adv-x="440" d="M157 369T119 408T80 508Q80 556 104 597T168 663T256 688Q317 688 355 649T394 548Q394 499 370 458T306 393T218 369Q157 369 119 408ZM271 423T303 460T336 552Q336 590 315 612T254
634Q203 634 171 597T138 507Q138 468 160 446T221 423Q271 423 303 460Z" />
<glyph unicode="&#xbb;" glyph-name="guillemotright" horiz-adv-x="543" d="M433 251L249 442L289 483L464 298Q478 284 484 271Q490 261 490 251Q490 232 454 202L230 19L198 60L433 251ZM231 251L47 442L87 483L262 298Q276 284 282 271Q288 261 288 251Q288
232 252 202L28 19L-4 60L231 251Z" />
<glyph unicode="&#xbc;" glyph-name="onequarter" horiz-adv-x="711" d="M66 433T28 434L19 485Q60 485 142 536L167 535L122 199H65L99 450Q66 433 28 434ZM397 500H454L177 0H118L397 500ZM527 51H378L383 90L514 321H576L453 105H534L548 208H605L592 105H631L623
51H585L577 -9H519L527 51Z" />
<glyph unicode="&#xbd;" glyph-name="onehalf" horiz-adv-x="723" d="M66 433T28 434L19 485Q60 485 142 536L167 535L122 199H65L99 450Q66 433 28 434ZM397 500H454L177 0H118L397 500ZM391 45T409 74T490 147Q533 174 553 192T573 238Q573 268 536 268Q481
268 462 210L412 235Q430 277 462 300T539 324Q583 324 608 301T633 238Q633 194 610 167T537 106Q526 99 504 83Q484 70 475 63T457 44L625 45L618 -8H384L387 17Q391 45 409 74Z" />
<glyph unicode="&#xbe;" glyph-name="threequarters" horiz-adv-x="801" d="M72 194T42 211T-3 252L33 289Q51 268 68 258T111 248Q146 248 169 265T193 309Q193 329 178 341T139 353H87L95 408H143Q164 408 180 421T197 454Q197 481 153 481Q106 481 78 455L54
499Q99 535 153 535Q196 535 224 514T253 456Q253 431 241 408T211 378Q232 367 241 349T251 309Q251 256 211 225T115 194Q72 194 42 211ZM485 500H542L265 0H206L485 500ZM614 51H465L470 90L601 321H663L540 105H621L635 208H692L679 105H718L710 51H672L664
-9H606L614 51Z" />
<glyph unicode="&#xbf;" glyph-name="questiondown" horiz-adv-x="458" d="M336 563T347 552T358 525Q358 505 345 492T314 478Q297 478 286 489T275 517Q275 536 288 549T320 563Q336 563 347 552ZM350 328T311 279Q288 254 263 238T199 203Q49 133 49 19Q49
-37 83 -71T175 -106Q209 -106 241 -93T294 -60T314 -18Q314 -5 307 -1T287 5L310 60Q337 58 354 37T371 -14Q371 -25 370 -31Q363 -67 335 -97T263 -144T172 -162Q118 -162 77 -139T13 -76T-10 16Q-10 34 -7 52Q3 115 38 157T150 243Q167 252 173 255Q214 277
228 286T256 310Q276 327 284 351T290 409L345 415Q350 328 311 279Z" />
<glyph unicode="&#xc0;" glyph-name="Agrave" horiz-adv-x="748" d="M28 -13T8 5T-17 50L30 72Q33 60 41 52T60 43Q72 43 81 51T101 79L430 693H450L641 0H580L517 227H241L144 40Q130 15 107 1T59 -13Q28 -13 8 5ZM501 283L432 552L427 592L412 552L272 283H501ZM282
826L320 877L466 762L442 726L282 826Z" />
<glyph unicode="&#xc1;" glyph-name="Aacute" horiz-adv-x="748" d="M28 -13T8 5T-17 50L30 72Q33 60 41 52T60 43Q72 43 81 51T101 79L430 693H450L641 0H580L517 227H241L144 40Q130 15 107 1T59 -13Q28 -13 8 5ZM501 283L432 552L427 592L412 552L272 283H501ZM425
774L602 884L626 832L439 738L425 774Z" />
<glyph unicode="&#xc2;" glyph-name="Acircumflex" horiz-adv-x="748" d="M28 -13T8 5T-17 50L30 72Q33 60 41 52T60 43Q72 43 81 51T101 79L430 693H450L641 0H580L517 227H241L144 40Q130 15 107 1T59 -13Q28 -13 8 5ZM501 283L432 552L427 592L412 552L272
283H501ZM437 855H485L595 733H524L456 802L368 733H298L437 855Z" />
<glyph unicode="&#xc3;" glyph-name="Atilde" horiz-adv-x="748" d="M28 -13T8 5T-17 50L30 72Q33 60 41 52T60 43Q72 43 81 51T101 79L430 693H450L641 0H580L517 227H241L144 40Q130 15 107 1T59 -13Q28 -13 8 5ZM501 283L432 552L427 592L412 552L272 283H501ZM357
823T407 823Q426 823 438 818T469 803Q481 795 490 792T510 788Q543 788 586 822L616 779Q585 756 564 747T507 737Q488 737 477 741T453 754Q441 762 432 766T407 770Q389 770 372 763T329 736L300 779Q357 823 407 823Z" />
<glyph unicode="&#xc4;" glyph-name="Adieresis" horiz-adv-x="748" d="M28 -13T8 5T-17 50L30 72Q33 60 41 52T60 43Q72 43 81 51T101 79L430 693H450L641 0H580L517 227H241L144 40Q130 15 107 1T59 -13Q28 -13 8 5ZM501 283L432 552L427 592L412 552L272 283H501ZM323
734T312 745T301 772Q301 792 314 805T345 819Q362 819 373 808T384 780Q384 761 371 748T339 734Q323 734 312 745ZM538 734T527 745T516 772Q516 792 529 805T560 819Q577 819 588 808T599 780Q599 761 586 748T554 734Q538 734 527 745Z" />
<glyph unicode="&#xc5;" glyph-name="Aring" horiz-adv-x="748" d="M28 -13T8 5T-17 50L30 72Q33 60 41 52T60 43Q72 43 81 51T101 79L430 693H450L641 0H580L517 227H241L144 40Q130 15 107 1T59 -13Q28 -13 8 5ZM501 283L432 552L427 592L412 552L272 283H501ZM407
736T384 759T360 821Q360 869 391 900T469 932Q509 932 533 909T557 848Q557 799 526 768T447 736Q407 736 384 759ZM473 779T492 799T512 846Q512 865 500 876T469 888Q443 888 425 868T407 821Q407 802 418 791T448 779Q473 779 492 799Z" />
<glyph unicode="&#xc6;" glyph-name="AE" horiz-adv-x="934" d="M-3 -14T-31 25L11 63Q19 50 25 47T43 43Q53 43 61 49T75 63L488 684H913L905 628H569L537 390H777L770 334H530L493 56H849L842 0H427L457 227H242L120 30Q107 8 85 -3T37 -14Q-3 -14 -31 25ZM464
283L511 630L489 592L283 283H464Z" />
<glyph unicode="&#xc7;" glyph-name="Ccedilla" horiz-adv-x="694" d="M568 53T493 16T339 -23L324 -60Q354 -64 369 -85T384 -137Q384 -164 370 -192T329 -239T263 -253L277 -200Q301 -200 316 -180T332 -137Q332 -106 292 -106H260L282 -20Q210 -9 156 33T73
141T43 285Q43 303 47 339Q60 439 115 524T253 660T427 711Q481 711 530 695T610 648T641 573Q641 529 611 498T541 466Q511 466 486 487L523 529Q534 522 543 522Q558 522 570 536T582 570Q582 609 533 631T427 654Q348 654 278 610T162 492T104 333Q101 309 101
286Q101 215 129 158T209 67T333 34Q404 34 469 67T580 157L622 123Q568 53 493 16Z" />
<glyph unicode="&#xc8;" glyph-name="Egrave" horiz-adv-x="634" d="M158 628T148 625T131 614Q124 609 118 598T110 578L57 583Q65 629 94 658Q112 671 132 677T183 684H608L601 628H234L203 390H453L446 334H195L159 56H525L518 0H93L177 628Q158 628 148 625ZM238
826L276 877L422 762L398 726L238 826Z" />
<glyph unicode="&#xc9;" glyph-name="Eacute" horiz-adv-x="634" d="M158 628T148 625T131 614Q124 609 118 598T110 578L57 583Q65 629 94 658Q112 671 132 677T183 684H608L601 628H234L203 390H453L446 334H195L159 56H525L518 0H93L177 628Q158 628 148 625ZM382
774L559 884L583 832L396 738L382 774Z" />
<glyph unicode="&#xca;" glyph-name="Ecircumflex" horiz-adv-x="634" d="M158 628T148 625T131 614Q124 609 118 598T110 578L57 583Q65 629 94 658Q112 671 132 677T183 684H608L601 628H234L203 390H453L446 334H195L159 56H525L518 0H93L177 628Q158 628 148
625ZM393 855H441L551 733H480L412 802L324 733H254L393 855Z" />
<glyph unicode="&#xcb;" glyph-name="Edieresis" horiz-adv-x="634" d="M158 628T148 625T131 614Q124 609 118 598T110 578L57 583Q65 629 94 658Q112 671 132 677T183 684H608L601 628H234L203 390H453L446 334H195L159 56H525L518 0H93L177 628Q158 628 148
625ZM279 734T268 745T257 772Q257 792 270 805T301 819Q318 819 329 808T340 780Q340 761 327 748T295 734Q279 734 268 745ZM494 734T483 745T472 772Q472 792 485 805T516 819Q533 819 544 808T555 780Q555 761 542 748T510 734Q494 734 483 745Z" />
<glyph unicode="&#xcc;" glyph-name="Igrave" horiz-adv-x="261" d="M135 684H194L104 0H45L135 684ZM36 867L83 909L195 759L164 729L36 867Z" />
<glyph unicode="&#xcd;" glyph-name="Iacute" horiz-adv-x="261" d="M135 684H194L104 0H45L135 684ZM153 753L263 933L313 904L184 731L153 753Z" />
<glyph unicode="&#xce;" glyph-name="Icircumflex" horiz-adv-x="261" d="M135 684H194L104 0H45L135 684ZM163 881H211L293 739H228L182 828L111 739H45L163 881Z" />
<glyph unicode="&#xcf;" glyph-name="Idieresis" horiz-adv-x="261" d="M135 684H194L104 0H45L135 684ZM62 738T51 749T40 776Q40 796 53 809T84 823Q101 823 112 812T123 784Q123 765 110 752T78 738Q62 738 51 749ZM241 738T230 749T219 776Q219 796 232 809T263
823Q280 823 291 812T302 784Q302 765 289 752T257 738Q241 738 230 749Z" />
<glyph unicode="&#xd0;" glyph-name="Eth" horiz-adv-x="763" d="M517 687T577 650T671 546T704 395Q704 363 700 336Q678 164 570 78T270 -8Q233 -8 197 -7T140 -5L93 0L138 340H61L68 394H145L178 634Q159 634 149 631T132 620Q125 615 119 604T111 584L58 589Q66
635 95 664Q113 677 133 683T184 690L438 689Q517 687 577 650ZM434 48T528 123T642 341Q646 366 646 397Q646 506 587 569T423 633H235L203 394H344L337 340H196L157 53L186 52Q242 48 273 48Q434 48 528 123Z" />
<glyph unicode="&#xd1;" glyph-name="Ntilde" horiz-adv-x="781" d="M30 -13T11 -2T-20 29L28 59Q32 52 40 48T54 44Q68 44 80 56T94 82L174 684H210L301 559L557 151L568 129L639 683H699L609 0H589L227 563L217 584L154 77Q148 37 119 12T54 -13Q30 -13 11 -2ZM363
823T413 823Q432 823 444 818T475 803Q487 795 496 792T516 788Q549 788 592 822L622 779Q591 756 570 747T513 737Q494 737 483 741T459 754Q447 762 438 766T413 770Q395 770 378 763T335 736L306 779Q363 823 413 823Z" />
<glyph unicode="&#xd2;" glyph-name="Ograve" horiz-adv-x="798" d="M252 -17T186 21T82 128T44 281Q44 307 47 332L49 351Q62 449 115 529T250 654T423 700Q508 700 574 661T677 554T714 399Q714 374 711 347L709 328Q696 229 643 151T510 28T338 -17Q252 -17
186 21ZM414 39T482 77T595 183T651 332L653 351Q656 375 656 397Q656 469 626 525T543 612T420 644Q344 644 276 605T163 497T107 347L104 328Q101 306 101 283Q101 212 130 157T213 70T337 39Q414 39 482 77ZM265 826L303 877L449 762L425 726L265 826Z" />
<glyph unicode="&#xd3;" glyph-name="Oacute" horiz-adv-x="798" d="M252 -17T186 21T82 128T44 281Q44 307 47 332L49 351Q62 449 115 529T250 654T423 700Q508 700 574 661T677 554T714 399Q714 374 711 347L709 328Q696 229 643 151T510 28T338 -17Q252 -17
186 21ZM414 39T482 77T595 183T651 332L653 351Q656 375 656 397Q656 469 626 525T543 612T420 644Q344 644 276 605T163 497T107 347L104 328Q101 306 101 283Q101 212 130 157T213 70T337 39Q414 39 482 77ZM409 774L586 884L610 832L423 738L409 774Z" />
<glyph unicode="&#xd4;" glyph-name="Ocircumflex" horiz-adv-x="798" d="M252 -17T186 21T82 128T44 281Q44 307 47 332L49 351Q62 449 115 529T250 654T423 700Q508 700 574 661T677 554T714 399Q714 374 711 347L709 328Q696 229 643 151T510 28T338 -17Q252
-17 186 21ZM414 39T482 77T595 183T651 332L653 351Q656 375 656 397Q656 469 626 525T543 612T420 644Q344 644 276 605T163 497T107 347L104 328Q101 306 101 283Q101 212 130 157T213 70T337 39Q414 39 482 77ZM420 855H468L578 733H507L439 802L351 733H281L420
855Z" />
<glyph unicode="&#xd5;" glyph-name="Otilde" horiz-adv-x="798" d="M252 -17T186 21T82 128T44 281Q44 307 47 332L49 351Q62 449 115 529T250 654T423 700Q508 700 574 661T677 554T714 399Q714 374 711 347L709 328Q696 229 643 151T510 28T338 -17Q252 -17
186 21ZM414 39T482 77T595 183T651 332L653 351Q656 375 656 397Q656 469 626 525T543 612T420 644Q344 644 276 605T163 497T107 347L104 328Q101 306 101 283Q101 212 130 157T213 70T337 39Q414 39 482 77ZM340 823T390 823Q409 823 421 818T452 803Q464 795
473 792T493 788Q526 788 569 822L599 779Q568 756 547 747T490 737Q471 737 460 741T436 754Q424 762 415 766T390 770Q372 770 355 763T312 736L283 779Q340 823 390 823Z" />
<glyph unicode="&#xd6;" glyph-name="Odieresis" horiz-adv-x="798" d="M252 -17T186 21T82 128T44 281Q44 307 47 332L49 351Q62 449 115 529T250 654T423 700Q508 700 574 661T677 554T714 399Q714 374 711 347L709 328Q696 229 643 151T510 28T338 -17Q252
-17 186 21ZM414 39T482 77T595 183T651 332L653 351Q656 375 656 397Q656 469 626 525T543 612T420 644Q344 644 276 605T163 497T107 347L104 328Q101 306 101 283Q101 212 130 157T213 70T337 39Q414 39 482 77ZM306 734T295 745T284 772Q284 792 297 805T328
819Q345 819 356 808T367 780Q367 761 354 748T322 734Q306 734 295 745ZM521 734T510 745T499 772Q499 792 512 805T543 819Q560 819 571 808T582 780Q582 761 569 748T537 734Q521 734 510 745Z" />
<glyph unicode="&#xd7;" glyph-name="multiply" horiz-adv-x="504" d="M30 116L194 265L75 408L121 451L240 308L397 451L432 410L276 268L401 119L354 76L230 225L65 75L30 116Z" />
<glyph unicode="&#xd8;" glyph-name="Oslash" horiz-adv-x="774" d="M647 614T681 548T715 399Q715 383 711 347L709 328Q696 229 643 151T510 28T338 -17Q285 -17 238 -2L201 -69H131L182 24Q117 62 81 129T44 281Q44 307 47 332L49 351Q62 449 115 529T250 654T423
700Q480 700 533 680L572 749H639L586 653Q647 614 681 548ZM101 306T101 284Q101 215 128 161T207 74L508 629Q468 644 420 644Q344 644 276 605T163 497T107 347L104 328Q101 306 101 284ZM653 351Q656 375 656 398Q656 463 631 515T561 601L262 50Q301 39 337
39Q414 39 482 77T595 183T651 332L653 351Z" />
<glyph unicode="&#xd9;" glyph-name="Ugrave" horiz-adv-x="734" d="M261 -10T212 20T137 104T112 222Q112 245 115 269L158 597Q159 601 159 608Q159 623 152 632T132 641Q106 641 87 614L46 648Q60 669 82 683T133 698Q172 698 194 674T217 610Q217 599 216
593L173 265Q170 244 170 223Q170 144 211 95T332 46Q396 46 444 78T519 162T554 269L609 684H667L612 265Q603 194 568 131T472 29T331 -10Q261 -10 212 20ZM261 826L299 877L445 762L421 726L261 826Z" />
<glyph unicode="&#xda;" glyph-name="Uacute" horiz-adv-x="734" d="M261 -10T212 20T137 104T112 222Q112 245 115 269L158 597Q159 601 159 608Q159 623 152 632T132 641Q106 641 87 614L46 648Q60 669 82 683T133 698Q172 698 194 674T217 610Q217 599 216
593L173 265Q170 244 170 223Q170 144 211 95T332 46Q396 46 444 78T519 162T554 269L609 684H667L612 265Q603 194 568 131T472 29T331 -10Q261 -10 212 20ZM404 774L581 884L605 832L418 738L404 774Z" />
<glyph unicode="&#xdb;" glyph-name="Ucircumflex" horiz-adv-x="734" d="M261 -10T212 20T137 104T112 222Q112 245 115 269L158 597Q159 601 159 608Q159 623 152 632T132 641Q106 641 87 614L46 648Q60 669 82 683T133 698Q172 698 194 674T217 610Q217 599
216 593L173 265Q170 244 170 223Q170 144 211 95T332 46Q396 46 444 78T519 162T554 269L609 684H667L612 265Q603 194 568 131T472 29T331 -10Q261 -10 212 20ZM416 855H464L574 733H503L435 802L347 733H277L416 855Z" />
<glyph unicode="&#xdc;" glyph-name="Udieresis" horiz-adv-x="734" d="M261 -10T212 20T137 104T112 222Q112 245 115 269L158 597Q159 601 159 608Q159 623 152 632T132 641Q106 641 87 614L46 648Q60 669 82 683T133 698Q172 698 194 674T217 610Q217 599 216
593L173 265Q170 244 170 223Q170 144 211 95T332 46Q396 46 444 78T519 162T554 269L609 684H667L612 265Q603 194 568 131T472 29T331 -10Q261 -10 212 20ZM301 734T290 745T279 772Q279 792 292 805T323 819Q340 819 351 808T362 780Q362 761 349 748T317 734Q301
734 290 745ZM516 734T505 745T494 772Q494 792 507 805T538 819Q555 819 566 808T577 780Q577 761 564 748T532 734Q516 734 505 745Z" />
<glyph unicode="&#xdd;" glyph-name="Yacute" horiz-adv-x="601" d="M141 636T124 636Q116 636 108 631Q94 627 91 618L47 645Q55 667 86 686Q106 696 128 696Q152 696 171 682T200 642L312 361L531 685H594L334 299L296 0H237L276 297L149 616Q141 636 124 636ZM337
774L514 884L538 832L351 738L337 774Z" />
<glyph unicode="&#xde;" glyph-name="Thorn" horiz-adv-x="541" d="M193 684L177 563H328Q405 558 448 512T491 388Q491 370 488 349Q474 242 404 190T229 137Q201 137 175 141L180 198Q212 193 233 193Q312 193 366 234T431 359Q433 381 433 389Q433 447 400
477T305 507H170L103 0H45L135 684H193Z" />
<glyph unicode="&#xdf;" glyph-name="germandbls" horiz-adv-x="532" d="M207 -13T166 45L207 82Q216 68 239 55T289 42Q325 42 354 65T399 128T415 211Q415 245 399 266T343 318Q310 341 296 357T281 400Q281 420 289 439T313 484Q319 487 331 505T352 548T362
601Q362 636 339 657T278 679Q222 679 193 643T155 539L83 0H25L96 541Q110 644 154 689T275 735Q337 735 377 702T418 604Q418 568 408 538T389 492T363 451Q355 444 346 430T337 406Q337 396 345 387T372 363Q416 334 443 300T471 205Q471 150 449 100T385 19T285
-13Q207 -13 166 45Z" />
<glyph unicode="&#xe0;" glyph-name="agrave" horiz-adv-x="588" d="M113 -10T66 49T19 201Q19 225 22 249Q32 325 68 384T163 475T293 508Q347 508 410 499H469L415 84Q414 80 414 74Q414 45 439 45Q458 45 471 63L510 27Q492 6 474 -2T433 -10Q398 -10 375 14T357
72Q328 31 288 11T201 -10Q113 -10 66 49ZM249 44T287 67T347 127Q367 156 370 190L406 450L342 452L288 454Q199 454 146 396T80 245Q77 223 77 201Q77 132 108 88T204 44Q249 44 287 67ZM172 698L219 740L330 590L300 560L172 698Z" />
<glyph unicode="&#xe1;" glyph-name="aacute" horiz-adv-x="588" d="M113 -10T66 49T19 201Q19 225 22 249Q32 325 68 384T163 475T293 508Q347 508 410 499H469L415 84Q414 80 414 74Q414 45 439 45Q458 45 471 63L510 27Q492 6 474 -2T433 -10Q398 -10 375 14T357
72Q328 31 288 11T201 -10Q113 -10 66 49ZM249 44T287 67T347 127Q367 156 370 190L406 450L342 452L288 454Q199 454 146 396T80 245Q77 223 77 201Q77 132 108 88T204 44Q249 44 287 67ZM284 593L420 754L463 716L310 565L284 593Z" />
<glyph unicode="&#xe2;" glyph-name="acircumflex" horiz-adv-x="588" d="M113 -10T66 49T19 201Q19 225 22 249Q32 325 68 384T163 475T293 508Q347 508 410 499H469L415 84Q414 80 414 74Q414 45 439 45Q458 45 471 63L510 27Q492 6 474 -2T433 -10Q398 -10
375 14T357 72Q328 31 288 11T201 -10Q113 -10 66 49ZM249 44T287 67T347 127Q367 156 370 190L406 450L342 452L288 454Q199 454 146 396T80 245Q77 223 77 201Q77 132 108 88T204 44Q249 44 287 67ZM298 707H346L447 565H382L317 654L226 565H160L298 707Z" />
<glyph unicode="&#xe3;" glyph-name="atilde" horiz-adv-x="588" d="M113 -10T66 49T19 201Q19 225 22 249Q32 325 68 384T163 475T293 508Q347 508 410 499H469L415 84Q414 80 414 74Q414 45 439 45Q458 45 471 63L510 27Q492 6 474 -2T433 -10Q398 -10 375 14T357
72Q328 31 288 11T201 -10Q113 -10 66 49ZM249 44T287 67T347 127Q367 156 370 190L406 450L342 452L288 454Q199 454 146 396T80 245Q77 223 77 201Q77 132 108 88T204 44Q249 44 287 67ZM208 649T258 649Q277 649 289 644T320 629Q332 621 341 618T361 614Q394
614 437 648L467 605Q436 582 415 573T358 563Q339 563 328 567T304 580Q292 588 283 592T258 596Q240 596 223 589T180 562L151 605Q208 649 258 649Z" />
<glyph unicode="&#xe4;" glyph-name="adieresis" horiz-adv-x="588" d="M113 -10T66 49T19 201Q19 225 22 249Q32 325 68 384T163 475T293 508Q347 508 410 499H469L415 84Q414 80 414 74Q414 45 439 45Q458 45 471 63L510 27Q492 6 474 -2T433 -10Q398 -10 375
14T357 72Q328 31 288 11T201 -10Q113 -10 66 49ZM249 44T287 67T347 127Q367 156 370 190L406 450L342 452L288 454Q199 454 146 396T80 245Q77 223 77 201Q77 132 108 88T204 44Q249 44 287 67ZM181 567T170 578T159 605Q159 625 172 638T203 652Q220 652 231
641T242 613Q242 594 229 581T197 567Q181 567 170 578ZM396 567T385 578T374 605Q374 625 387 638T418 652Q435 652 446 641T457 613Q457 594 444 581T412 567Q396 567 385 578Z" />
<glyph unicode="&#xe5;" glyph-name="aring" horiz-adv-x="588" d="M113 -10T66 49T19 201Q19 225 22 249Q32 325 68 384T163 475T293 508Q347 508 410 499H469L415 84Q414 80 414 74Q414 45 439 45Q458 45 471 63L510 27Q492 6 474 -2T433 -10Q398 -10 375 14T357
72Q328 31 288 11T201 -10Q113 -10 66 49ZM249 44T287 67T347 127Q367 156 370 190L406 450L342 452L288 454Q199 454 146 396T80 245Q77 223 77 201Q77 132 108 88T204 44Q249 44 287 67ZM273 557T250 581T227 644Q227 697 258 730T337 763Q378 763 401 739T425
675Q425 664 424 658Q417 611 387 584T313 557Q273 557 250 581ZM341 600T360 621T379 674Q379 695 368 707T336 719Q310 719 292 698T274 644Q274 623 285 612T314 600Q341 600 360 621Z" />
<glyph unicode="&#xe6;" glyph-name="ae" horiz-adv-x="767" d="M76 -10T37 21T-3 111Q-3 126 -2 134Q9 212 68 247T215 283H319L326 338Q328 350 328 370Q328 403 316 427Q295 454 246 454Q208 454 167 439T91 399L68 445Q106 475 153 491T245 508Q302 508 332
482Q350 470 361 449T376 400Q410 451 451 479Q500 508 554 508Q625 508 670 471T716 372Q716 358 715 351Q704 274 639 237T481 200L366 198Q364 119 397 82T504 44Q542 44 578 56T663 93L685 47Q596 -10 501 -10Q418 -10 374 32Q338 61 324 114Q316 88 303 65T260
22Q236 7 205 -1T141 -10Q76 -10 37 21ZM658 254T658 375Q658 417 630 435T558 454Q482 454 431 387Q378 326 369 252L485 254Q658 254 658 375ZM205 44T251 80T305 179L312 229H219Q146 229 105 206T55 126Q54 120 54 110Q54 72 77 58T137 44Q205 44 251 80Z"
/>
<glyph unicode="&#xe7;" glyph-name="ccedilla" horiz-adv-x="480" d="M257 -43T272 -64T287 -116Q287 -143 273 -171T232 -218T166 -232L180 -179Q204 -179 219 -159T235 -116Q235 -85 195 -85H163L183 -4Q103 5 61 55T18 191Q18 205 22 241Q32 321 68 382T158
478T278 512Q347 512 391 474T436 378Q436 365 435 358L381 362Q382 367 382 376Q382 413 354 435T279 458Q201 458 147 397T79 234Q76 213 76 195Q76 123 114 86T225 48Q261 48 298 59T385 95L408 51Q329 0 242 -5L227 -39Q257 -43 272 -64Z" />
<glyph unicode="&#xe8;" glyph-name="egrave" horiz-adv-x="499" d="M119 -10T68 44T17 189Q17 211 20 233Q29 301 61 364T149 467T275 508Q343 508 388 471T434 372Q434 289 367 244T185 200L77 199Q75 123 110 84T217 44Q262 44 301 57T379 96L405 54Q364 24
315 7T216 -10Q119 -10 68 44ZM276 252T322 277T376 358Q377 363 377 374Q377 415 349 434T276 454Q221 454 179 422T111 342T81 250L202 252Q276 252 322 277ZM151 706L198 748L309 598L279 568L151 706Z" />
<glyph unicode="&#xe9;" glyph-name="eacute" horiz-adv-x="499" d="M119 -10T68 44T17 189Q17 211 20 233Q29 301 61 364T149 467T275 508Q343 508 388 471T434 372Q434 289 367 244T185 200L77 199Q75 123 110 84T217 44Q262 44 301 57T379 96L405 54Q364 24
315 7T216 -10Q119 -10 68 44ZM276 252T322 277T376 358Q377 363 377 374Q377 415 349 434T276 454Q221 454 179 422T111 342T81 250L202 252Q276 252 322 277ZM264 601L400 762L443 724L290 573L264 601Z" />
<glyph unicode="&#xea;" glyph-name="ecircumflex" horiz-adv-x="499" d="M119 -10T68 44T17 189Q17 211 20 233Q29 301 61 364T149 467T275 508Q343 508 388 471T434 372Q434 289 367 244T185 200L77 199Q75 123 110 84T217 44Q262 44 301 57T379 96L405 54Q364
24 315 7T216 -10Q119 -10 68 44ZM276 252T322 277T376 358Q377 363 377 374Q377 415 349 434T276 454Q221 454 179 422T111 342T81 250L202 252Q276 252 322 277ZM278 715H326L427 573H362L297 662L206 573H140L278 715Z" />
<glyph unicode="&#xeb;" glyph-name="edieresis" horiz-adv-x="499" d="M119 -10T68 44T17 189Q17 211 20 233Q29 301 61 364T149 467T275 508Q343 508 388 471T434 372Q434 289 367 244T185 200L77 199Q75 123 110 84T217 44Q262 44 301 57T379 96L405 54Q364
24 315 7T216 -10Q119 -10 68 44ZM276 252T322 277T376 358Q377 363 377 374Q377 415 349 434T276 454Q221 454 179 422T111 342T81 250L202 252Q276 252 322 277ZM161 575T150 586T139 613Q139 633 152 646T183 660Q200 660 211 649T222 621Q222 602 209 589T177
575Q161 575 150 586ZM376 575T365 586T354 613Q354 633 367 646T398 660Q415 660 426 649T437 621Q437 602 424 589T392 575Q376 575 365 586Z" />
<glyph unicode="&#xec;" glyph-name="igrave" horiz-adv-x="253" d="M88 68T95 60T114 51Q135 51 146 69L186 34Q176 18 156 7T112 -5Q72 -5 50 21T32 87L86 500H144L89 82Q88 68 95 60ZM-10 693L37 735L149 585L118 555L-10 693Z" />
<glyph unicode="&#xed;" glyph-name="iacute" horiz-adv-x="253" d="M88 68T95 60T114 51Q135 51 146 69L186 34Q176 18 156 7T112 -5Q72 -5 50 21T32 87L86 500H144L89 82Q88 68 95 60ZM107 579L217 759L267 730L138 557L107 579Z" />
<glyph unicode="&#xee;" glyph-name="icircumflex" horiz-adv-x="253" d="M88 68T95 60T114 51Q135 51 146 69L186 34Q176 18 156 7T112 -5Q72 -5 50 21T32 87L86 500H144L89 82Q88 68 95 60ZM117 707H165L247 565H182L136 654L65 565H-1L117 707Z" />
<glyph unicode="&#xef;" glyph-name="idieresis" horiz-adv-x="253" d="M88 68T95 60T114 51Q135 51 146 69L186 34Q176 18 156 7T112 -5Q72 -5 50 21T32 87L86 500H144L89 82Q88 68 95 60ZM16 564T5 575T-6 602Q-6 622 7 635T38 649Q55 649 66 638T77 610Q77
591 64 578T32 564Q16 564 5 575ZM195 564T184 575T173 602Q173 622 186 635T217 649Q234 649 245 638T256 610Q256 591 243 578T211 564Q195 564 184 575Z" />
<glyph unicode="&#xf0;" glyph-name="eth" horiz-adv-x="510" d="M142 -9T101 17T38 90T16 195Q16 216 19 237Q28 304 60 359T143 446T258 478Q304 478 339 456T391 404Q390 444 376 495T345 579L234 517L213 565L316 622Q279 669 229 694L257 744Q322 711 367
649L480 713L502 665L394 606Q420 557 435 489T450 350Q450 315 445 273Q429 148 364 70T198 -9Q142 -9 101 17ZM276 45T321 102T383 253Q384 258 387 278T391 313Q391 352 361 385Q341 404 314 414T257 424Q184 424 136 369T76 233Q74 211 74 199Q74 134 105 90T196
45Q276 45 321 102Z" />
<glyph unicode="&#xf1;" glyph-name="ntilde" horiz-adv-x="592" d="M514 34Q505 18 485 7T441 -5Q401 -5 379 21T361 87L394 338Q396 358 396 368Q396 456 307 456Q257 456 218 430T136 353L88 0H30L77 353Q79 377 79 386Q79 439 52 468L94 506Q110 494 123 472T139
423Q177 469 220 489T314 510Q385 510 422 472T455 360L418 82Q417 68 424 60T442 51Q452 51 461 56T475 69L514 34ZM220 653T270 653Q289 653 301 648T332 633Q344 625 353 622T373 618Q406 618 449 652L479 609Q448 586 427 577T370 567Q351 567 340 571T316
584Q304 592 295 596T270 600Q252 600 235 593T192 566L163 609Q220 653 270 653Z" />
<glyph unicode="&#xf2;" glyph-name="ograve" horiz-adv-x="581" d="M168 -10T121 17T49 93T23 207Q23 228 26 252Q35 327 73 385T168 477T294 510Q356 510 403 482T476 405T502 290Q502 270 499 247Q489 172 452 114T357 23T231 -10Q168 -10 121 17ZM314 44T371
102T442 253Q445 273 445 291Q445 366 404 411T293 456Q239 456 194 429T120 355T83 246Q80 227 80 208Q80 133 121 89T233 44Q314 44 371 102ZM173 705L220 747L331 597L301 567L173 705Z" />
<glyph unicode="&#xf3;" glyph-name="oacute" horiz-adv-x="581" d="M168 -10T121 17T49 93T23 207Q23 228 26 252Q35 327 73 385T168 477T294 510Q356 510 403 482T476 405T502 290Q502 270 499 247Q489 172 452 114T357 23T231 -10Q168 -10 121 17ZM314 44T371
102T442 253Q445 273 445 291Q445 366 404 411T293 456Q239 456 194 429T120 355T83 246Q80 227 80 208Q80 133 121 89T233 44Q314 44 371 102ZM286 600L422 761L465 723L312 572L286 600Z" />
<glyph unicode="&#xf4;" glyph-name="ocircumflex" horiz-adv-x="581" d="M168 -10T121 17T49 93T23 207Q23 228 26 252Q35 327 73 385T168 477T294 510Q356 510 403 482T476 405T502 290Q502 270 499 247Q489 172 452 114T357 23T231 -10Q168 -10 121 17ZM314
44T371 102T442 253Q445 273 445 291Q445 366 404 411T293 456Q239 456 194 429T120 355T83 246Q80 227 80 208Q80 133 121 89T233 44Q314 44 371 102ZM300 714H348L449 572H384L319 661L228 572H162L300 714Z" />
<glyph unicode="&#xf5;" glyph-name="otilde" horiz-adv-x="581" d="M168 -10T121 17T49 93T23 207Q23 228 26 252Q35 327 73 385T168 477T294 510Q356 510 403 482T476 405T502 290Q502 270 499 247Q489 172 452 114T357 23T231 -10Q168 -10 121 17ZM314 44T371
102T442 253Q445 273 445 291Q445 366 404 411T293 456Q239 456 194 429T120 355T83 246Q80 227 80 208Q80 133 121 89T233 44Q314 44 371 102ZM209 656T259 656Q278 656 290 651T321 636Q333 628 342 625T362 621Q395 621 438 655L468 612Q437 589 416 580T359
570Q340 570 329 574T305 587Q293 595 284 599T259 603Q241 603 224 596T181 569L152 612Q209 656 259 656Z" />
<glyph unicode="&#xf6;" glyph-name="odieresis" horiz-adv-x="581" d="M168 -10T121 17T49 93T23 207Q23 228 26 252Q35 327 73 385T168 477T294 510Q356 510 403 482T476 405T502 290Q502 270 499 247Q489 172 452 114T357 23T231 -10Q168 -10 121 17ZM314 44T371
102T442 253Q445 273 445 291Q445 366 404 411T293 456Q239 456 194 429T120 355T83 246Q80 227 80 208Q80 133 121 89T233 44Q314 44 371 102ZM183 574T172 585T161 612Q161 632 174 645T205 659Q222 659 233 648T244 620Q244 601 231 588T199 574Q183 574 172
585ZM398 574T387 585T376 612Q376 632 389 645T420 659Q437 659 448 648T459 620Q459 601 446 588T414 574Q398 574 387 585Z" />
<glyph unicode="&#xf7;" glyph-name="divide" horiz-adv-x="462" d="M167 101T156 112T145 139Q145 159 158 172T189 186Q206 186 217 175T228 147Q228 128 215 115T183 101Q167 101 156 112ZM206 400T195 411T184 438Q184 458 197 471T228 485Q245 485 256 474T267
446Q267 427 254 414T222 400Q206 400 195 411ZM312 326H643L636 269H304L312 326Z" />
<glyph unicode="&#xf8;" glyph-name="oslash" horiz-adv-x="564" d="M78 47Q48 75 33 116T18 207Q18 228 21 249Q31 322 68 381T164 474T293 508Q324 508 353 501T405 480L433 519L478 489L445 450Q506 390 506 292Q506 271 503 248Q492 165 450 107T350 19T229
-11Q168 -11 119 18L91 -21L47 9L78 47ZM350 456T301 456Q211 456 150 398T76 242Q73 220 73 200Q73 131 107 90L374 435Q350 456 301 456ZM283 41T329 66T408 142T449 260Q452 283 452 302Q452 369 417 408L150 58Q188 41 232 41Q283 41 329 66Z" />
<glyph unicode="&#xf9;" glyph-name="ugrave" horiz-adv-x="588" d="M510 27Q492 6 474 -2T433 -10Q398 -10 375 14T357 72Q318 32 277 12T186 -8Q113 -8 76 29T45 141L73 355Q76 375 76 391Q76 442 48 470L90 508Q109 494 123 467T137 408Q137 397 136 391L106
163Q104 141 104 132Q104 90 125 68T193 46Q247 46 289 70T364 147L412 500H470L415 84Q414 80 414 74Q414 45 439 45Q458 45 471 63L510 27ZM153 698L200 740L311 590L281 560L153 698Z" />
<glyph unicode="&#xfa;" glyph-name="uacute" horiz-adv-x="588" d="M510 27Q492 6 474 -2T433 -10Q398 -10 375 14T357 72Q318 32 277 12T186 -8Q113 -8 76 29T45 141L73 355Q76 375 76 391Q76 442 48 470L90 508Q109 494 123 467T137 408Q137 397 136 391L106
163Q104 141 104 132Q104 90 125 68T193 46Q247 46 289 70T364 147L412 500H470L415 84Q414 80 414 74Q414 45 439 45Q458 45 471 63L510 27ZM265 593L401 754L444 716L291 565L265 593Z" />
<glyph unicode="&#xfb;" glyph-name="ucircumflex" horiz-adv-x="588" d="M510 27Q492 6 474 -2T433 -10Q398 -10 375 14T357 72Q318 32 277 12T186 -8Q113 -8 76 29T45 141L73 355Q76 375 76 391Q76 442 48 470L90 508Q109 494 123 467T137 408Q137 397 136 391L106
163Q104 141 104 132Q104 90 125 68T193 46Q247 46 289 70T364 147L412 500H470L415 84Q414 80 414 74Q414 45 439 45Q458 45 471 63L510 27ZM280 707H328L429 565H364L299 654L208 565H142L280 707Z" />
<glyph unicode="&#xfc;" glyph-name="udieresis" horiz-adv-x="588" d="M510 27Q492 6 474 -2T433 -10Q398 -10 375 14T357 72Q318 32 277 12T186 -8Q113 -8 76 29T45 141L73 355Q76 375 76 391Q76 442 48 470L90 508Q109 494 123 467T137 408Q137 397 136 391L106
163Q104 141 104 132Q104 90 125 68T193 46Q247 46 289 70T364 147L412 500H470L415 84Q414 80 414 74Q414 45 439 45Q458 45 471 63L510 27ZM163 567T152 578T141 605Q141 625 154 638T185 652Q202 652 213 641T224 613Q224 594 211 581T179 567Q163 567 152 578ZM378
567T367 578T356 605Q356 625 369 638T400 652Q417 652 428 641T439 613Q439 594 426 581T394 567Q378 567 367 578Z" />
<glyph unicode="&#xfd;" glyph-name="yacute" horiz-adv-x="548" d="M468 500L420 138L386 -116Q376 -193 332 -238T222 -284Q165 -284 129 -246T92 -148Q92 -139 94 -123Q100 -82 118 -51T166 -6Q108 -2 75 32T41 119Q41 125 43 141L71 358Q74 378 74 394Q74
445 46 473L88 511Q109 495 123 464T135 397L104 163Q102 141 102 134Q102 90 123 69T190 48Q233 48 270 67T345 131Q356 141 360 150T366 174L410 500H468ZM356 77Q336 49 321 36T302 20L239 -17Q197 -37 176 -63T150 -127Q149 -134 149 -147Q149 -185 168 -205T223
-226Q263 -226 291 -196T328 -116L356 77ZM263 593L399 754L442 716L289 565L263 593Z" />
<glyph unicode="&#xfe;" glyph-name="thorn" horiz-adv-x="527" d="M176 724Q151 539 131 428Q162 471 203 490T290 509Q377 509 423 451T469 300Q469 283 465 249Q455 174 420 116T328 24T198 -9Q143 -9 82 0L46 -260H-9L121 726L176 724ZM287 43T341 99T407
249Q410 273 410 296Q410 367 380 412T289 457Q234 457 186 421T124 327L86 52Q174 43 194 43Q287 43 341 99Z" />
<glyph unicode="&#xff;" glyph-name="ydieresis" horiz-adv-x="548" d="M468 500L420 138L386 -116Q376 -193 332 -238T222 -284Q165 -284 129 -246T92 -148Q92 -139 94 -123Q100 -82 118 -51T166 -6Q108 -2 75 32T41 119Q41 125 43 141L71 358Q74 378 74 394Q74
445 46 473L88 511Q109 495 123 464T135 397L104 163Q102 141 102 134Q102 90 123 69T190 48Q233 48 270 67T345 131Q356 141 360 150T366 174L410 500H468ZM356 77Q336 49 321 36T302 20L239 -17Q197 -37 176 -63T150 -127Q149 -134 149 -147Q149 -185 168 -205T223
-226Q263 -226 291 -196T328 -116L356 77ZM160 567T149 578T138 605Q138 625 151 638T182 652Q199 652 210 641T221 613Q221 594 208 581T176 567Q160 567 149 578ZM375 567T364 578T353 605Q353 625 366 638T397 652Q414 652 425 641T436 613Q436 594 423 581T391
567Q375 567 364 578Z" />
<glyph unicode="&#x2013;" glyph-name="endash" horiz-adv-x="564" d="M66 334H481L473 278H59L66 334Z" />
<glyph unicode="&#x2014;" glyph-name="emdash" horiz-adv-x="719" d="M66 334H636L628 278H59L66 334Z" />
<glyph unicode="&#x2018;" glyph-name="quoteleft" horiz-adv-x="235" d="M173 658T169 627T165 565L166 555Q166 541 159 531T139 518Q124 516 115 525T105 548L104 558Q102 602 115 644Q123 665 134 681T165 719L196 691Q173 658 169 627Z" />
<glyph unicode="&#x2019;" glyph-name="quoteright" horiz-adv-x="234" d="M116 555T120 586T124 648L123 658Q123 672 130 682T150 695Q165 697 174 688T184 665L185 655Q188 615 174 569Q166 548 155 532T124 494L93 522Q116 555 120 586Z" />
<glyph unicode="&#x201a;" glyph-name="quotesinglbase" horiz-adv-x="234" d="M36 -51T40 -20T44 42L43 52Q43 66 50 76T70 89Q85 91 94 82T104 59L105 49Q108 9 94 -37Q86 -58 75 -74T44 -112L13 -84Q36 -51 40 -20Z" />
<glyph unicode="&#x201c;" glyph-name="quotedblleft" horiz-adv-x="359" d="M303 658T299 627T295 565L296 555Q296 541 289 531T269 518Q254 516 245 525T235 548L234 558Q232 602 245 644Q253 665 264 681T295 719L326 691Q303 658 299 627ZM179 658T175 627T171
565L172 555Q172 541 165 531T145 518Q130 516 121 525T111 548L110 558Q108 602 121 644Q129 665 140 681T171 719L202 691Q179 658 175 627Z" />
<glyph unicode="&#x201d;" glyph-name="quotedblright" horiz-adv-x="361" d="M243 555T247 586T251 648L250 658Q250 672 257 682T277 695Q292 697 301 688T311 665L312 655Q315 615 301 569Q293 548 282 532T251 494L220 522Q243 555 247 586ZM116 555T120 586T124
648L123 658Q123 672 130 682T150 695Q165 697 174 688T184 665L185 655Q188 615 174 569Q166 548 155 532T124 494L93 522Q116 555 120 586Z" />
<glyph unicode="&#x201e;" glyph-name="quotedblbase" horiz-adv-x="341" d="M31 -40T40 -20Q46 -8 47 7T49 38T50 59Q51 73 60 81T83 89Q99 89 106 78T112 53Q108 20 103 -1T89 -41Q72 -71 34 -97L8 -62Q31 -40 40 -20ZM139 -44T148 -24Q154 -12 155 3T157 34T158
55Q159 69 168 77T191 85Q207 85 214 74T220 49Q216 16 211 -5T197 -45Q180 -75 142 -101L116 -66Q139 -44 148 -24Z" />
<glyph unicode="&#x2022;" glyph-name="bullet" horiz-adv-x="307" d="M101 228T80 250T58 306Q58 344 85 371T151 399Q183 399 204 378T225 324Q225 285 198 257T134 228Q101 228 80 250Z" />
<glyph unicode="&#x2039;" glyph-name="guilsinglleft" horiz-adv-x="345" d="M15 230T15 251Q15 270 51 301L276 485L309 442L71 252L259 61L217 18L40 203Q15 230 15 251Z" />
<glyph unicode="&#x203a;" glyph-name="guilsinglright" horiz-adv-x="341" d="M231 251L47 442L87 483L262 298Q276 284 282 271Q288 261 288 251Q288 232 252 202L28 19L-4 60L231 251Z" />
</font>
</defs>
</svg>
